<svg xmlns="http://www.w3.org/2000/svg" viewBox="0 0 64 56"><defs><style>.cls-1{fill:#ebeff1;}.cls-2{fill:#b0bec5;}.cls-3{fill:#cfd8dd;}.cls-4{fill:#ff2400;}</style></defs><title>First Aid</title><g id="Layer_2" data-name="Layer 2"><g id="Layer_1-2" data-name="Layer 1"><rect class="cls-1" y="12" width="64" height="44" rx="4" ry="4"/><path class="cls-2" d="M44,4v8H40V5a1,1,0,0,0-1-1H25a1,1,0,0,0-1,1v7H20V4a4,4,0,0,1,4-4H40A4,4,0,0,1,44,4Z"/><rect class="cls-3" x="8" y="12" width="6" height="44"/><rect class="cls-3" x="50" y="12" width="6" height="44"/><rect class="cls-4" x="28" y="22" width="8" height="24" rx="2" ry="2"/><rect class="cls-4" x="28" y="22" width="8" height="24" rx="2" ry="2" transform="translate(66 2) rotate(90)"/></g></g></svg>